<?xml version="1.0" encoding="UTF-8" standalone="no"?>
<svg
   xmlns:dc="http://purl.org/dc/elements/1.1/"
   xmlns:cc="http://creativecommons.org/ns#"
   xmlns:rdf="http://www.w3.org/1999/02/22-rdf-syntax-ns#"
   xmlns:svg="http://www.w3.org/2000/svg"
   xmlns="http://www.w3.org/2000/svg"
   xmlns:sodipodi="http://sodipodi.sourceforge.net/DTD/sodipodi-0.dtd"
   xmlns:inkscape="http://www.inkscape.org/namespaces/inkscape"
   enable-background="new 0 0 128 128"
   height="128px"
   version="1.1"
   viewBox="0 0 128 128"
   width="128px"
   xml:space="preserve"
   id="svg3336"
   inkscape:version="0.91 r13725"
   sodipodi:docname="logo.svg"><metadata
     id="metadata3356"><rdf:RDF><cc:Work
         rdf:about=""><dc:format>image/svg+xml</dc:format><dc:type
           rdf:resource="http://purl.org/dc/dcmitype/StillImage" /></cc:Work></rdf:RDF></metadata><defs
     id="defs3354" /><sodipodi:namedview
     pagecolor="#ffffff"
     bordercolor="#666666"
     borderopacity="1"
     objecttolerance="10"
     gridtolerance="10"
     guidetolerance="10"
     inkscape:pageopacity="0"
     inkscape:pageshadow="2"
     inkscape:window-width="1920"
     inkscape:window-height="1017"
     id="namedview3352"
     showgrid="false"
     inkscape:zoom="6.625"
     inkscape:cx="36.830189"
     inkscape:cy="64"
     inkscape:window-x="-8"
     inkscape:window-y="-8"
     inkscape:window-maximized="1"
     inkscape:current-layer="svg3336" /><g
     id="Layer_2" /><g
     id="Layer_1"
     transform="translate(3.3207547,-5.7358491)"
     style="fill:none;fill-opacity:1;stroke:#ffffff"><g
       id="g3340"
       style="fill:none;fill-opacity:1;stroke:#ffffff"><polygon
         points="69.582,95.859 69.582,88.192 54.848,91.165 54.848,98.831 "
         id="polygon3342"
         style="fill:none;fill-opacity:1;stroke:#ffffff" /><polygon
         points="69.582,81.358 69.582,73.689 54.848,76.663 54.848,84.328 "
         id="polygon3344"
         style="fill:none;fill-opacity:1;stroke:#ffffff" /><path
         d="m 54.689,33.253 c 0,-4.113 3.332,-7.448 7.444,-7.448 4.113,0 7.448,3.335 7.448,7.448"
         stroke-miterlimit="10"
         id="path3346"
         inkscape:connector-curvature="0"
         style="fill:none;stroke:#ffffff;stroke-width:5;stroke-linecap:round;stroke-linejoin:round;stroke-miterlimit:10;fill-opacity:1" /><path
         d="m 85.066,67.008 c -3.479,0 -52.145,0 -52.145,0 -3.246,0 -5.879,-2.631 -5.879,-5.881 l 0,-19.989 c 0,-3.247 2.633,-5.878 5.879,-5.878 0,0 48.936,0 52.279,0 3.341,0 6.698,2.313 6.698,2.313 0,0 10.038,9.587 11.49,10.922 1.45,1.335 1.395,3.993 0,5.314 -1.397,1.322 -11.34,10.739 -11.34,10.739 0,0 -2.88,2.46 -6.982,2.46 z"
         stroke-miterlimit="10"
         id="path3348"
         inkscape:connector-curvature="0"
         style="fill:none;stroke:#ffffff;stroke-width:5;stroke-linecap:round;stroke-linejoin:round;stroke-miterlimit:10;fill-opacity:1" /><path
         d="m 70.952,67.597 0,32.335 c 0,3.249 -2.633,5.882 -5.879,5.882 l -5.878,0 c -3.249,0 -5.881,-2.633 -5.881,-5.882 l 0,-32.335"
         stroke-miterlimit="10"
         id="path3350"
         inkscape:connector-curvature="0"
         style="fill:none;stroke:#ffffff;stroke-width:5;stroke-linecap:round;stroke-linejoin:round;stroke-miterlimit:10;fill-opacity:1" /></g></g></svg>